<svg xmlns="http://www.w3.org/2000/svg" id="svg2" version="1.1" width="125.7" height="64.31"><defs id="defs4"><clipPath clipPathUnits="userSpaceOnUse" id="clipPath26384"><path d="M343.299 158.609h1317.456V937.57H343.299Z" id="path26382"/></clipPath><clipPath clipPathUnits="userSpaceOnUse" id="clipPath26400"><path d="M343.299 158.609h1317.456V937.57H343.299Z" id="path26398"/></clipPath><clipPath clipPathUnits="userSpaceOnUse" id="clipPath26444"><path d="M343.299 158.609h1317.456V937.57H343.299Z" id="path26442"/></clipPath><clipPath clipPathUnits="userSpaceOnUse" id="clipPath26464"><path d="M343.299 158.609h1317.456V937.57H343.299Z" id="path26462"/></clipPath><style id="style2">.cls-1{fill:#006bae}.cls-1,.cls-2,.cls-3{fill-rule:evenodd}.cls-2{fill:#050706}.cls-3{fill:#000101}.cls-4{fill:#231f20}</style></defs><g transform="matrix(.25496 0 0 -.25496 -106.797 220.322)" id="g27216"><g transform="translate(513.149 658.283)" id="g26370"><path id="path26372" style="fill:#911414;fill-opacity:1;fill-rule:nonzero;stroke:none" d="M0 0v203.769h-9.544l-16.324-23.539 8.826-6.386 5.343 7.541V0Z"/></g><g transform="translate(440.637 748.995)" id="g26374"><path id="path26376" style="fill:#000;fill-opacity:1;fill-rule:nonzero;stroke:none" d="M0 0h-10.037v-90.949H2.267v65.808l24.749-36.795h6.976l21.25 31.59v21.658L30.571-45.007Z"/></g><g id="g26378"><g clip-path="url(#clipPath26384)" id="g26380"><g transform="translate(612.317 704.471)" id="g26386"><path id="path26388" style="fill:#000;fill-opacity:1;fill-rule:nonzero;stroke:none" d="M0 0c0 12.213-4.8 23.893-13.517 32.885-8.877 8.88-20.55 13.772-32.864 13.772-12.188 0-24.121-5.02-32.738-13.775C-87.836 23.89-92.636 12.213-92.636 0c0-12.21 4.8-23.89 13.517-32.886 8.488-8.751 20.419-13.771 32.738-13.771 12.448 0 24.122 4.891 32.867 13.774C-4.8-23.89 0-12.21 0 0m-46.381-34.215c-8.854 0-17.54 3.687-23.836 10.118C-76.651-17.663-80.198-9.103-80.198 0c0 9.103 3.547 17.662 9.984 24.1 6.293 6.427 14.979 10.118 23.833 10.118 8.88 0 17.663-3.687 24.09-10.118l.004-.004c6.352-6.49 9.849-15.05 9.849-24.096s-3.497-17.606-9.849-24.097c-6.431-6.431-15.214-10.118-24.094-10.118"/></g></g></g><g transform="translate(608.54 737.506)" id="g26390"><path id="path26392" style="fill:#000;fill-opacity:1;fill-rule:nonzero;stroke:none" d="M0 0h27.825v-78.903h12.307V0h27.693v12.439H0Z"/></g><g id="g26394"><g clip-path="url(#clipPath26400)" id="g26396"><g transform="translate(768.112 704.471)" id="g26402"><path id="path26404" style="fill:#000;fill-opacity:1;fill-rule:nonzero;stroke:none" d="M0 0c0 12.209-4.801 23.89-13.518 32.885-8.879 8.88-20.553 13.772-32.866 13.772-12.188 0-24.119-5.02-32.735-13.775C-87.836 23.886-92.637 12.209-92.637 0c0-12.21 4.801-23.887 13.518-32.886 8.485-8.751 20.418-13.771 32.735-13.771 12.448 0 24.121 4.891 32.87 13.774C-4.801-23.887 0-12.21 0 0m-46.384-34.215c-8.855 0-17.54 3.687-23.833 10.118C-76.651-17.66-80.198-9.103-80.198 0c0 9.099 3.547 17.659 9.984 24.1 6.29 6.427 14.975 10.118 23.83 10.118 8.886 0 17.665-3.687 24.093-10.118l.003-.004C-15.935 17.603-12.439 9.042-12.439 0c0-9.043-3.496-17.603-9.849-24.097-6.431-6.431-15.21-10.118-24.096-10.118"/></g><g transform="translate(816.54 693.518)" id="g26406"><path id="path26408" style="fill:#000;fill-opacity:1;fill-rule:nonzero;stroke:none" d="M0 0c14.194 2.483 23.366 13.329 23.366 27.627 0 13.872-9.219 28.8-29.455 28.8h-32.995v-90.949h12.178v78.51h20.817c11.78 0 17.145-8.481 17.145-16.361 0-7.945-5.365-16.493-17.145-16.493h-15.01V5.481l33.215-40.003h15.953L-.812-.141Z"/></g><g transform="translate(910.653 691.643)" id="g26410"><path id="path26412" style="fill:#000;fill-opacity:1;fill-rule:nonzero;stroke:none" d="M0 0c-3.339 13.865-17.725 17.478-31.355 19.183-9.166.856-20.588 1.922-21.284 11.994-.292 3.461.514 6.525 2.329 8.858 3.355 4.317 9.724 6.986 17.033 7.142 8.13.151 17.073-3.433 19.152-11.67l12.206.489c-2.696 17.129-18.161 23.228-30.69 23.228-11.22 0-21.739-4.609-27.449-12.028-3.715-4.829-5.409-10.705-4.904-17.001h.013c1.407-18.672 17.321-21.833 32.123-23.328 8.431-.844 18.926-1.894 20.632-9.426.27-1.216.404-2.311.404-3.257 0-7.588-7.885-15.44-21.083-15.44-9.077 0-18.982 4.819-20.227 12.919l-.069-.003-.098 1.517-12.444-.244.107-2.004c1.225-11.799 13.071-24.363 32.6-24.363 16.543 0 33.65 10.281 33.65 27.489C.646-4.214.411-2.047 0 0"/></g><g transform="translate(495.88 800.808)" id="g26414"><path id="path26416" style="fill:#000;fill-opacity:1;fill-rule:nonzero;stroke:none" d="M0 0a34.325 34.325 0 0 0-5.907-8.149c-6.171-6.171-14.703-9.977-23.758-9.977-9.056 0-17.456 3.806-23.492 9.977-6.039 6.039-9.845 14.439-9.845 23.761 0 9.319 3.806 17.722 9.845 23.761 6.036 6.17 14.436 9.977 23.492 9.977 6.459 0 12.649-1.944 17.907-5.292l7.638 10.996c-7.353 4.832-16.098 7.688-25.545 7.688-12.862 0-24.674-5.384-33.074-13.915-8.268-8.535-13.649-20.219-13.649-33.215 0-12.997 5.381-24.68 13.649-33.215 8.4-8.664 20.212-13.916 33.074-13.916 11.278 0 21.566 3.961 29.665 10.674v11.511z"/></g></g></g><g transform="translate(542.47 834.667)" id="g26418"><path id="path26420" style="fill:#000;fill-opacity:1;fill-rule:nonzero;stroke:none" d="m0 0 44.361-64.197h10.501v91.896H41.737v-64.72L-3.02 27.699l-10.237.132v-92.028H0Z"/></g><g transform="translate(669.78 783.73)" id="g26422"><path id="path26424" style="fill:#000;fill-opacity:1;fill-rule:nonzero;stroke:none" d="M0 0h-42.656v25.993H-1.05v13.392h-41.606v25.862H-.128v13.257h-55.914V-13.26H0Z"/></g><g transform="translate(451.191 633.335)" id="g26426"><path id="path26428" style="fill:#911414;fill-opacity:1;fill-rule:nonzero;stroke:none" d="m0 0-9.021-20.572h-2.907L-20.977 0h3.173l7.403-16.897L-2.938 0Z"/></g><g transform="translate(515.16 615.32)" id="g26430"><path id="path26432" style="fill:#911414;fill-opacity:1;fill-rule:nonzero;stroke:none" d="M0 0v-2.555h-14.925v20.569H-.411v-2.556h-11.576V9.14h10.313V6.641h-10.313V0Z"/></g><g transform="translate(569.61 638.83)" id="g26434"><path id="path26436" style="fill:#911414;fill-opacity:1;fill-rule:nonzero;stroke:none" d="M0 0h3.584l-4.936-3.819h-2.643zm-3.261-5.497h2.938v-20.572h-2.938z"/></g><g id="g26438"><g clip-path="url(#clipPath26444)" id="g26440"><g transform="translate(620.21 623.049)" id="g26446"><path id="path26448" style="fill:#911414;fill-opacity:1;fill-rule:nonzero;stroke:none" d="M0 0c0 6.083 4.644 10.52 10.899 10.52 3.173 0 5.935-1.085 7.817-3.202l-1.91-1.853c-1.586 1.678-3.527 2.439-5.788 2.439-4.643 0-8.08-3.348-8.08-7.904s3.437-7.905 8.08-7.905c2.261 0 4.202.794 5.788 2.468l1.91-1.854c-1.882-2.113-4.644-3.229-7.845-3.229C4.644-10.52 0-6.083 0 0"/></g><g transform="translate(689.29 621.638)" id="g26450"><path id="path26452" style="fill:#911414;fill-opacity:1;fill-rule:nonzero;stroke:none" d="M0 0v11.695h2.938V.119c0-4.556 2.085-6.613 5.788-6.613 3.703 0 5.816 2.057 5.816 6.613v11.576h2.851V0c0-5.967-3.261-9.112-8.695-9.112C3.292-9.112 0-5.967 0 0"/></g></g></g><g transform="translate(759.136 633.335)" id="g26454"><path id="path26456" style="fill:#911414;fill-opacity:1;fill-rule:nonzero;stroke:none" d="M0 0h2.938v-18.014h11.134v-2.558H0Z"/></g><g id="g26458"><g clip-path="url(#clipPath26464)" id="g26460"><g transform="translate(820.96 623.049)" id="g26466"><path id="path26468" style="fill:#911414;fill-opacity:1;fill-rule:nonzero;stroke:none" d="M0 0c0 6.023 4.644 10.52 10.958 10.52 6.259 0 10.903-4.465 10.903-10.52s-4.644-10.52-10.903-10.52C4.644-10.52 0-6.023 0 0m18.919 0c0 4.556-3.405 7.904-7.961 7.904-4.612 0-8.02-3.348-8.02-7.904s3.408-7.905 8.02-7.905c4.556 0 7.961 3.349 7.961 7.905"/></g><g transform="translate(891.864 615.114)" id="g26470"><path id="path26472" style="fill:#911414;fill-opacity:1;fill-rule:nonzero;stroke:none" d="m0 0 1.088 2.292C2.615.909 5.23-.088 7.873-.088c3.556 0 5.083 1.38 5.083 3.173 0 5.027-12.457 1.851-12.457 9.492 0 3.176 2.467 5.879 7.873 5.879 2.411 0 4.907-.646 6.612-1.822l-.968-2.352c-1.794 1.145-3.819 1.675-5.644 1.675-3.497 0-4.992-1.468-4.992-3.261 0-5.027 12.457-1.882 12.457-9.435 0-3.145-2.527-5.848-7.964-5.848C4.731-2.587 1.646-1.527 0 0"/></g></g></g></g></svg>